<?xml version="1.0" standalone="no"?>
<!DOCTYPE svg PUBLIC "-//W3C//DTD SVG 20010904//EN"
 "http://www.w3.org/TR/2001/REC-SVG-20010904/DTD/svg10.dtd">
<svg version="1.0" xmlns="http://www.w3.org/2000/svg"
 width="260.000000pt" height="260.000000pt" viewBox="0 0 260.000000 260.000000"
 preserveAspectRatio="xMidYMid meet">
<metadata>
Created by potrace 1.14, written by Peter Selinger 2001-2017
</metadata>
<g transform="translate(0.000000,260.000000) scale(0.100000,-0.100000)"
fill="#000000" stroke="none">
<path d="M1240 2154 c-283 -61 -475 -337 -430 -619 14 -90 73 -215 134 -282
125 -138 322 -207 500 -173 36 7 66 16 66 20 0 4 -11 28 -25 52 l-25 45 -52
-8 c-83 -13 -191 9 -274 58 -63 36 -141 125 -177 200 -30 64 -32 75 -32 178 0
102 2 114 31 175 57 120 152 203 272 240 209 65 429 -35 525 -238 30 -63 32
-73 32 -182 0 -100 -4 -122 -25 -169 -22 -49 -22 -56 -9 -80 8 -14 30 -52 48
-83 l32 -58 -63 0 -64 0 -79 140 -79 140 -28 -30 c-76 -84 -210 -92 -294 -18
-99 87 -100 240 -2 323 77 65 154 72 238 22 50 -30 62 -45 130 -160 41 -69 78
-126 82 -127 11 0 21 89 14 137 -14 106 -89 206 -191 254 -50 24 -73 29 -136
29 -64 0 -85 -5 -137 -30 -243 -122 -249 -453 -10 -586 48 -26 62 -29 148 -29
71 0 103 4 126 17 l32 17 63 -107 64 -107 188 -2 c166 -2 188 0 183 13 -3 9
-39 73 -80 144 l-75 127 20 63 c21 69 26 214 8 290 -20 89 -70 172 -149 251
-90 90 -173 134 -289 155 -94 16 -128 16 -211 -2z"/>
<path d="M1245 858 c-3 -7 -4 -110 -3 -228 l3 -215 48 -3 47 -3 0 58 c0 91 16
94 64 15 41 -66 42 -67 89 -70 26 -2 47 1 47 5 0 5 -27 50 -59 100 l-59 91 54
53 c30 29 54 57 54 61 0 5 -20 7 -45 6 -41 -1 -50 -7 -96 -55 -27 -29 -51 -53
-52 -53 -1 0 -2 55 -2 122 l0 123 -43 3 c-28 2 -44 -1 -47 -10z"/>
<path d="M395 836 c-20 -31 -6 -63 31 -72 50 -13 89 62 45 86 -32 17 -60 12
-76 -14z"/>
<path d="M80 713 c-44 -23 -70 -69 -77 -135 -12 -129 54 -190 180 -165 l37 8
0 -71 0 -70 45 0 45 0 0 210 0 210 -27 11 c-16 6 -59 13 -98 16 -54 3 -78 0
-105 -14z m138 -140 c-3 -85 -4 -87 -31 -96 -15 -5 -39 -6 -52 -3 -46 12 -59
123 -19 167 12 13 31 19 61 19 l44 0 -3 -87z"/>
<path d="M397 723 c-4 -3 -7 -75 -7 -160 l0 -153 45 0 45 0 0 160 0 160 -38 0
c-21 0 -42 -3 -45 -7z"/>
<path d="M629 707 c-44 -29 -69 -80 -69 -140 0 -105 51 -157 153 -157 109 0
157 49 157 160 0 110 -50 160 -158 160 -34 0 -59 -7 -83 -23z m126 -62 c27
-26 34 -90 15 -139 -10 -27 -46 -42 -79 -31 -46 14 -53 149 -8 180 30 21 44
19 72 -10z"/>
<path d="M979 716 c-32 -19 -52 -64 -44 -99 9 -35 19 -42 96 -69 55 -20 64
-26 64 -48 0 -23 -4 -25 -49 -28 -26 -2 -61 1 -77 7 -27 9 -31 8 -40 -16 -7
-20 -6 -28 3 -35 23 -14 77 -20 143 -16 81 5 115 31 115 89 0 51 -25 77 -100
103 -66 22 -80 40 -48 60 12 7 32 7 67 0 48 -10 50 -10 56 14 3 14 1 30 -5 36
-17 17 -151 19 -181 2z"/>
<path d="M1802 719 c-28 -8 -33 -14 -30 -37 3 -26 4 -26 78 -27 74 0 75 0 78
-27 3 -27 2 -28 -45 -28 -126 -1 -190 -90 -120 -167 25 -28 101 -32 147 -8 25
13 29 13 34 0 6 -16 91 -21 113 -7 18 12 4 52 -18 52 -17 0 -19 9 -19 99 0 91
-2 102 -24 128 -21 24 -31 27 -92 30 -38 1 -84 -2 -102 -8z m128 -203 c0 -29
-5 -36 -31 -45 -40 -14 -69 1 -69 34 0 29 23 44 68 45 30 0 32 -2 32 -34z"/>
<path d="M2117 723 c-4 -3 -7 -75 -7 -160 l0 -153 45 0 45 0 0 109 c0 102 2
111 22 125 27 19 59 21 76 4 8 -8 12 -50 12 -125 l0 -113 45 0 45 0 0 115 c0
125 5 135 64 135 37 0 46 -27 46 -144 l0 -106 45 0 45 0 0 119 c0 65 -5 132
-10 148 -19 52 -84 67 -159 37 -37 -14 -42 -14 -63 0 -30 21 -86 20 -130 -3
-35 -18 -37 -18 -41 0 -4 14 -14 19 -39 19 -19 0 -38 -3 -41 -7z"/>
<path d="M1596 484 c-32 -32 -13 -74 34 -74 30 0 50 16 50 41 0 23 -27 49 -50
49 -10 0 -26 -7 -34 -16z"/>
</g>
</svg>
