<svg width="80" height="40" viewBox="0 0 80 40" fill="none" xmlns="http://www.w3.org/2000/svg">
<rect x="0.601562" y="0.633789" width="79.3985" height="39.3662" rx="5" fill="white"/>
<path fill-rule="evenodd" clip-rule="evenodd" d="M15.4732 12.0175C16.0454 12.0142 17.7459 11.8655 18.4663 14.2256C18.9515 15.8154 19.7244 18.4196 20.785 22.0381H21.217C22.3544 18.2232 23.1357 15.619 23.561 14.2256C24.2888 11.8409 26.1084 12.0176 26.8362 12.0176L32.4515 12.0176V28.9753H26.7282V18.9818H26.3444L23.154 28.9753H18.848L15.6575 18.9744H15.2737V28.9753H9.55048V12.0176L15.4732 12.0175ZM40.67 12.0176V22.0185H41.1266L45.0074 13.7948C45.7608 12.1583 47.3664 12.0176 47.3664 12.0176H52.9048V28.9753H47.062V18.9744H46.6054L42.8007 27.1981C42.0473 28.8272 40.3656 28.9753 40.3656 28.9753H34.8272V12.0176H40.67ZM73.1001 20.076C72.2851 22.3181 69.7257 23.9239 66.892 23.9239H60.7647V28.9753H55.2085V20.076H73.1001Z" fill="#0F754E"/>
<path fill-rule="evenodd" clip-rule="evenodd" d="M67.16 12.0176H54.9172C55.2085 15.7929 58.5576 19.0249 62.0245 19.0249H73.4862C74.1476 15.8871 71.8707 12.0176 67.16 12.0176Z" fill="url(#paint0_linear_6_260)"/>
<defs>
<linearGradient id="paint0_linear_6_260" x1="1923.06" y1="452.809" x2="54.9172" y2="452.809" gradientUnits="userSpaceOnUse">
<stop stop-color="#1F5CD7"/>
<stop offset="1" stop-color="#02AEFF"/>
</linearGradient>
</defs>
</svg>
